<?xml version="1.0" standalone="no"?>
<!DOCTYPE svg PUBLIC "-//W3C//DTD SVG 20010904//EN"
 "http://www.w3.org/TR/2001/REC-SVG-20010904/DTD/svg10.dtd">
<svg version="1.0" xmlns="http://www.w3.org/2000/svg"
 width="1024.000000pt" height="768.000000pt" viewBox="0 0 1024.000000 768.000000"
 preserveAspectRatio="xMidYMid meet">

<g transform="translate(0.000000,768.000000) scale(0.100000,-0.100000)"
fill="#000000" stroke="none">
<path d="M2296 6925 c-4 -19 -17 -42 -29 -50 -21 -15 -21 -16 -2 -13 12 2 19
-2 18 -9 -2 -7 4 -13 12 -13 12 0 15 13 15 60 0 68 -5 76 -14 25z"/>
<path d="M2543 6856 c4 -10 -19 -14 -106 -20 -66 -3 -139 -14 -177 -26 -62
-19 -63 -20 -20 -16 25 3 63 7 85 10 32 5 30 3 -11 -7 -65 -17 -123 -44 -151
-70 -37 -33 -26 -42 11 -9 47 41 248 102 338 102 35 0 37 -2 40 -37 3 -35 6
-38 36 -41 27 -3 34 1 42 24 19 50 -13 104 -63 104 -20 0 -28 -4 -24 -14z"/>
<path d="M2165 6820 c-7 -12 2 -12 30 0 19 8 19 9 -2 9 -12 1 -25 -3 -28 -9z"/>
<path d="M2159 6763 c-13 -15 -12 -15 6 -6 11 6 27 13 35 16 10 4 8 6 -6 6
-12 1 -28 -6 -35 -16z"/>
<path d="M2274 6730 c-33 -13 -36 -26 -9 -38 21 -10 22 -14 12 -36 -7 -14 -23
-30 -36 -36 -13 -6 -21 -13 -18 -16 3 -3 14 -1 25 5 12 6 30 11 42 11 19 0 21
5 18 56 -2 31 -5 57 -8 59 -3 1 -15 -1 -26 -5z"/>
<path d="M2192 6674 c-13 -9 -22 -25 -22 -42 0 -20 3 -23 9 -12 6 8 8 17 5 22
-3 4 9 14 26 23 16 8 30 18 30 20 0 10 -27 4 -48 -11z"/>
<path d="M2415 6626 c-5 -2 -43 -10 -83 -17 -108 -19 -67 -34 51 -19 89 12
148 29 102 30 -11 0 -29 2 -40 5 -11 2 -24 2 -30 1z"/>
<path d="M7211 6595 c0 -12 -6 -26 -13 -33 -9 -9 -9 -12 0 -12 16 0 25 23 19
47 -4 16 -5 15 -6 -2z"/>
<path d="M2495 6594 c-6 -2 -44 -8 -85 -13 l-75 -8 75 -2 c41 0 82 3 90 9 15
10 12 20 -5 14z"/>
<path d="M6745 6589 c-4 -6 -17 -14 -29 -19 -14 -6 -16 -9 -5 -9 9 -1 24 8 34
19 10 11 15 20 12 20 -3 0 -9 -5 -12 -11z"/>
<path d="M2248 6573 c7 -3 16 -2 19 1 4 3 -2 6 -13 5 -11 0 -14 -3 -6 -6z"/>
<path d="M2179 6551 c-13 -11 -21 -23 -16 -27 4 -4 13 -1 20 8 6 9 21 20 32
26 16 9 17 11 4 12 -9 0 -27 -9 -40 -19z"/>
<path d="M2240 6530 c-12 -8 -9 -10 13 -10 15 0 27 5 27 10 0 13 -20 13 -40 0z"/>
<path d="M2251 6494 c-19 -8 -32 -16 -30 -19 8 -7 89 17 89 26 0 13 -20 10
-59 -7z"/>
<path d="M2165 6490 c3 -5 10 -10 16 -10 5 0 9 5 9 10 0 6 -7 10 -16 10 -8 0
-12 -4 -9 -10z"/>
<path d="M2260 6465 c-27 -10 -30 -14 -13 -14 25 -1 37 -16 30 -35 -6 -16 -57
-9 -54 7 1 7 -9 13 -22 15 -24 4 -24 3 5 -22 27 -24 28 -27 12 -40 -30 -22
-21 -24 35 -5 52 17 52 18 55 63 3 50 3 51 -48 31z"/>
<path d="M2585 6410 c18 -8 17 -9 -7 -9 -15 -1 -29 -5 -32 -9 -3 -5 -54 -12
-113 -15 -122 -6 -256 -33 -225 -44 6 -3 10 -9 6 -14 -3 -5 2 -9 10 -9 10 0
13 6 10 15 -4 9 0 15 8 15 8 0 74 5 147 11 129 10 134 10 155 -10 15 -14 36
-21 64 -21 38 0 42 2 42 25 0 47 -20 75 -54 74 -26 0 -28 -2 -11 -9z"/>
<path d="M4848 6328 c-8 -34 -13 -104 -12 -193 2 -172 20 -249 100 -414 50
-102 66 -126 138 -196 105 -104 314 -284 344 -298 18 -8 25 -8 32 3 6 10 20 3
62 -30 102 -83 92 -77 85 -57 -4 11 -1 17 7 17 21 0 36 24 29 48 -3 12 -9 20
-13 17 -4 -3 -7 7 -7 22 0 14 -8 30 -17 35 -9 5 -16 16 -16 24 0 8 -4 12 -10
9 -5 -3 -10 -1 -10 4 0 6 5 11 12 11 6 0 3 9 -7 20 -18 20 -17 20 13 20 18 0
32 4 32 8 0 14 -43 49 -70 57 -34 10 -170 93 -195 119 -11 11 -55 47 -98 80
-237 180 -381 425 -381 654 0 50 -1 92 -2 92 -1 0 -8 -24 -16 -52z"/>
<path d="M2278 6323 c6 -2 18 -2 25 0 6 3 1 5 -13 5 -14 0 -19 -2 -12 -5z"/>
<path d="M2248 6293 c7 -3 16 -2 19 1 4 3 -2 6 -13 5 -11 0 -14 -3 -6 -6z"/>
<path d="M2263 6263 c9 -2 25 -2 35 0 9 3 1 5 -18 5 -19 0 -27 -2 -17 -5z"/>
<path d="M2195 6240 c-19 -8 -19 -9 3 -9 12 -1 22 4 22 9 0 6 -1 10 -2 9 -2 0
-12 -4 -23 -9z"/>
<path d="M2246 6232 c6 -4 13 -15 17 -24 4 -12 0 -18 -16 -20 -17 -2 -22 -10
-22 -38 -1 -31 -4 -36 -30 -40 -17 -3 -31 -12 -33 -22 -5 -24 35 -32 127 -24
42 3 112 9 156 12 l80 7 17 -37 c14 -28 24 -36 43 -36 42 0 64 16 58 42 -11
43 -19 45 -181 53 l-157 7 3 64 4 64 -39 0 c-21 0 -33 -4 -27 -8z m29 -72 c-3
-5 -12 -7 -20 -3 -21 7 -19 13 6 13 11 0 18 -4 14 -10z m10 -30 c3 -5 -3 -10
-15 -10 -12 0 -18 5 -15 10 3 6 10 10 15 10 5 0 12 -4 15 -10z m-72 -37 c-7
-2 -21 -2 -30 0 -10 3 -4 5 12 5 17 0 24 -2 18 -5z"/>
<path d="M2230 6030 c-43 -7 -41 -7 23 -8 43 -1 66 2 62 8 -7 11 -16 11 -85 0z"/>
<path d="M5403 5973 c-3 -10 -8 -22 -10 -28 -3 -5 3 -1 12 10 10 13 25 19 43
17 21 -2 24 -1 12 7 -23 16 -50 13 -57 -6z"/>
<path d="M5444 5953 c5 -9 0 -13 -13 -13 -12 0 -21 -5 -21 -11 0 -5 -4 -7 -10
-4 -16 10 -12 -12 6 -29 21 -21 47 -20 67 2 16 17 15 20 -10 43 -14 13 -23 18
-19 12z"/>
<path d="M2259 5942 c-32 -3 -36 -6 -31 -28 3 -16 11 -24 26 -25 19 -1 18 -2
-4 -9 -25 -7 -23 -10 20 -23 12 -4 10 -6 -5 -12 -11 -4 -36 -13 -55 -21 l-35
-14 40 5 c22 3 35 2 28 -1 -7 -3 -9 -12 -6 -21 4 -11 2 -14 -5 -9 -7 4 -12 3
-12 -2 0 -6 -12 -13 -27 -17 l-28 -8 25 -7 c14 -4 30 -3 37 2 7 5 64 12 127
15 104 5 116 8 116 24 0 13 -8 19 -22 20 -13 0 -50 1 -83 2 l-60 2 0 62 c0 33
-2 63 -5 65 -3 1 -21 2 -41 0z"/>
<path d="M2428 5753 c7 -3 16 -2 19 1 4 3 -2 6 -13 5 -11 0 -14 -3 -6 -6z"/>
<path d="M2546 5715 c-27 -28 -20 -62 15 -74 18 -6 43 -11 56 -11 22 0 24 3
21 48 -3 46 -4 47 -39 50 -24 2 -42 -3 -53 -13z"/>
<path d="M2263 5713 c-23 -3 -30 -8 -26 -19 3 -9 -1 -14 -13 -14 -15 0 -14 -3
7 -14 14 -7 37 -16 52 -20 26 -6 27 -5 27 34 0 22 -3 39 -7 38 -5 0 -22 -3
-40 -5z"/>
<path d="M2223 5602 l-31 -27 139 -3 c81 -1 147 2 157 7 12 8 -11 10 -80 11
-91 0 -98 1 -98 20 0 30 -48 25 -87 -8z"/>
<path d="M2400 5550 c0 -5 19 -10 43 -9 36 1 38 2 17 9 -36 12 -60 12 -60 0z"/>
<path d="M2293 5543 c15 -2 39 -2 55 0 15 2 2 4 -28 4 -30 0 -43 -2 -27 -4z"/>
<path d="M2255 5523 c-16 -3 -34 -9 -40 -15 -7 -7 -2 -9 15 -4 14 3 35 6 48 6
12 0 22 5 22 10 0 6 -3 9 -7 9 -5 -1 -21 -4 -38 -6z"/>
<path d="M2220 5479 c0 -5 13 -9 29 -9 17 0 32 -4 35 -9 9 -14 -4 -40 -18 -35
-6 2 -12 -4 -13 -14 -1 -15 6 -19 29 -20 30 -1 30 0 25 39 -3 23 -7 42 -9 43
-10 9 -78 13 -78 5z"/>
<path d="M2188 5473 c7 -3 16 -2 19 1 4 3 -2 6 -13 5 -11 0 -14 -3 -6 -6z"/>
<path d="M2255 5360 c27 -7 25 -8 -20 -11 -48 -2 -47 -3 20 -9 l70 -6 -65 -3
c-36 -2 -76 -7 -90 -12 -21 -7 -20 -8 10 -4 19 2 97 7 173 11 76 4 140 11 143
15 8 14 -12 17 -146 22 -69 3 -111 1 -95 -3z"/>
<path d="M2526 5350 c3 -8 9 -24 12 -35 9 -35 23 -45 62 -45 34 0 38 3 44 31
8 44 -6 57 -70 61 -45 2 -53 0 -48 -12z"/>
<path d="M2191 5298 c-26 -7 -31 -12 -20 -19 8 -5 24 -9 37 -9 20 0 22 -5 22
-48 0 -43 -3 -49 -27 -60 -27 -11 -27 -11 -3 -7 14 3 46 5 72 5 47 0 47 0 38
26 -6 14 -10 48 -10 75 0 45 -2 49 -24 49 -15 0 -26 -7 -29 -17 -4 -17 -5 -17
-6 0 -1 19 -2 19 -50 5z m96 -4 c-3 -3 -12 -4 -19 -1 -8 3 -5 6 6 6 11 1 17
-2 13 -5z m-40 -81 c-3 -10 -5 -2 -5 17 0 19 2 27 5 18 2 -10 2 -26 0 -35z"/>
<path d="M3880 5269 c0 -5 5 -7 10 -4 6 3 10 8 10 11 0 2 -4 4 -10 4 -5 0 -10
-5 -10 -11z"/>
<path d="M4030 5254 c0 -5 7 -17 15 -28 15 -19 11 -70 -8 -94 -7 -9 -6 -11 6
-6 22 8 30 38 23 79 -6 29 -37 71 -36 49z"/>
<path d="M3847 5243 c-10 -10 -8 -45 2 -39 11 7 21 46 12 46 -4 0 -11 -3 -14
-7z"/>
<path d="M2215 5131 l-40 -7 40 -7 c51 -9 305 -14 305 -6 0 19 -37 25 -145 26
-66 0 -138 -3 -160 -6z"/>
<path d="M4009 5115 c-6 -6 -45 -13 -79 -15 l-25 -1 23 -10 c28 -11 66 -3 83
17 10 13 9 20 -2 9z"/>
<path d="M2263 5083 c9 -2 25 -2 35 0 9 3 1 5 -18 5 -19 0 -27 -2 -17 -5z"/>
<path d="M5390 5057 c8 -10 14 -21 13 -23 -8 -11 -2 -24 8 -18 7 4 7 -1 -1
-16 -7 -13 -8 -20 -2 -16 13 8 26 -29 16 -45 -5 -9 -11 -7 -20 5 -11 15 -12
12 -9 -26 2 -25 22 -83 48 -138 68 -142 88 -222 93 -377 3 -85 1 -134 -6 -138
-6 -4 -8 -10 -5 -15 9 -14 -14 -60 -30 -60 -8 0 -15 -4 -15 -10 0 -5 -7 -10
-16 -10 -9 0 -14 6 -11 13 3 8 -3 20 -14 28 -10 7 -19 25 -19 38 0 19 -3 22
-12 13 -19 -19 -26 -14 -25 16 1 15 0 47 -2 72 -2 32 -7 13 -16 -70 -26 -230
-96 -484 -185 -665 -108 -222 -390 -624 -580 -830 -55 -59 -71 -85 -95 -151
-95 -268 -162 -367 -363 -536 -48 -40 -89 -76 -92 -79 -3 -3 -14 -9 -25 -12
-19 -7 -19 -6 1 10 12 10 27 28 33 41 7 12 16 20 21 17 6 -3 7 0 4 8 -3 8 2
17 11 21 11 4 14 2 10 -7 -4 -6 0 -3 9 8 8 11 35 39 58 62 28 28 38 43 27 43
-9 0 -25 -11 -35 -25 -10 -14 -25 -23 -32 -20 -7 2 -15 -2 -19 -11 -5 -12 -7
-13 -14 -3 -6 11 -15 7 -38 -15 -17 -16 -28 -33 -25 -38 3 -4 -1 -8 -8 -8 -7
0 -38 -25 -68 -56 -56 -56 -79 -58 -40 -3 17 22 20 33 11 42 -8 8 -11 7 -11
-4 0 -7 -8 -23 -16 -34 -15 -19 -15 -19 -9 10 4 17 3 26 -2 20 -4 -5 -18 -11
-30 -13 -21 -3 -22 -1 -14 21 8 22 7 24 -10 20 -11 -3 -22 -9 -25 -14 -3 -5
-13 -9 -22 -9 -10 0 -31 -16 -47 -35 -35 -40 -40 -42 -42 -15 -1 11 2 18 7 15
6 -3 7 1 4 10 -6 14 -12 11 -40 -16 -34 -33 -43 -46 -24 -34 5 3 18 1 27 -4
10 -6 12 -11 6 -11 -7 0 -13 -7 -13 -14 0 -26 -98 -134 -178 -197 -42 -34
-115 -86 -162 -117 -47 -30 -88 -60 -92 -66 -4 -6 -8 -8 -8 -4 0 4 -56 -20
-124 -52 -127 -61 -375 -147 -501 -175 -38 -8 -81 -20 -95 -26 -15 -7 -81 -11
-166 -10 -126 2 -143 0 -165 -18 -23 -19 -23 -20 -6 -39 24 -27 60 -40 132
-51 39 -6 50 -9 30 -11 l-30 -2 30 -7 c27 -6 97 0 153 14 12 3 22 12 22 20 0
23 17 18 24 -7 17 -64 10 -74 -63 -98 -67 -21 -72 -21 -173 -7 -93 14 -105 14
-120 0 -40 -36 -9 -57 108 -74 72 -11 75 -11 138 20 36 17 69 31 74 31 19 0
111 43 107 50 -2 4 10 12 28 18 128 42 308 110 392 149 152 70 357 196 411
253 16 16 33 30 37 30 21 0 220 146 294 216 20 19 39 32 42 28 3 -3 -28 -37
-69 -76 -65 -60 -71 -68 -45 -62 17 4 34 13 38 21 4 7 14 13 21 13 8 0 19 7
26 15 7 9 15 13 17 11 3 -2 31 11 63 30 32 19 61 34 65 34 4 0 18 9 32 20 14
11 30 17 36 13 5 -3 7 -2 4 4 -6 9 34 35 58 39 6 0 32 11 58 22 27 12 55 22
63 22 8 0 14 4 14 9 0 5 14 14 31 20 32 11 88 53 155 116 62 59 114 87 114 62
-1 -35 -295 -305 -418 -385 -40 -26 -126 -82 -192 -124 -65 -43 -156 -98 -202
-123 -46 -26 -106 -63 -133 -84 -28 -21 -68 -48 -90 -60 -34 -19 -36 -21 -12
-16 57 12 407 208 672 377 219 140 648 473 730 568 16 19 75 84 130 145 55 60
111 126 125 145 21 31 147 188 238 296 42 50 25 14 -41 -85 -27 -42 -79 -106
-116 -143 -36 -38 -61 -68 -56 -68 5 0 0 -7 -11 -15 -13 -11 -14 -14 -4 -13 8
2 17 6 20 10 3 4 23 10 44 12 46 6 59 16 81 61 9 19 20 35 26 35 6 0 7 -4 4
-10 -3 -5 -2 -10 4 -10 5 0 15 8 20 18 6 9 11 12 11 4 0 -9 9 -8 38 4 20 9 43
17 50 17 33 1 223 253 334 440 103 175 162 320 188 462 18 101 24 341 11 440
-24 173 -127 438 -242 615 -65 101 -210 290 -219 285 -4 -2 -18 8 -31 23 -22
25 -22 25 -1 8 39 -33 24 -3 -26 50 -26 28 -40 42 -32 31z m105 -207 c3 -5 1
-10 -4 -10 -6 0 -11 5 -11 10 0 6 2 10 4 10 3 0 8 -4 11 -10z m-835 -2520 c-6
-11 -13 -20 -16 -20 -2 0 0 9 6 20 6 11 13 20 16 20 2 0 0 -9 -6 -20z m-50
-59 c-11 -21 -30 -37 -30 -25 0 8 30 44 37 44 2 0 -1 -9 -7 -19z m-2344 -971
c9 0 13 -4 10 -9 -4 -5 0 -12 6 -14 19 -8 -24 -8 -61 -1 -17 4 -31 10 -31 15
0 10 30 18 48 13 8 -2 20 -4 28 -4z m71 -26 c-3 -3 -12 -4 -19 -1 -8 3 -5 6 6
6 11 1 17 -2 13 -5z m-29 -24 c40 0 61 -4 57 -10 -12 -20 -166 -3 -180 21 -3
4 9 4 27 -2 18 -5 61 -9 96 -9z m255 -127 c-7 -2 -19 -2 -25 0 -7 3 -2 5 12 5
14 0 19 -2 13 -5z m-233 -34 c24 -5 14 -6 -30 -2 -36 3 -76 10 -90 14 -31 10
71 0 120 -12z m117 5 c-3 -3 -12 -4 -19 -1 -8 3 -5 6 6 6 11 1 17 -2 13 -5z
m-154 -31 c-7 -2 -19 -2 -25 0 -7 3 -2 5 12 5 14 0 19 -2 13 -5z m74 -9 c-3
-3 -12 -4 -19 -1 -8 3 -5 6 6 6 11 1 17 -2 13 -5z"/>
<path d="M2180 5041 c14 -5 38 -12 53 -15 15 -4 26 -10 23 -14 -2 -4 -1 -26 4
-50 6 -35 5 -42 -9 -42 -14 0 -14 -2 -1 -10 10 -6 -2 -10 -40 -13 -30 -2 31
-4 136 -5 l192 -2 6 -24 c7 -28 68 -45 92 -25 16 13 19 45 4 54 -6 4 -7 11 -4
17 9 15 -16 28 -53 28 -23 0 -33 -5 -33 -15 0 -12 -19 -15 -109 -15 -60 0
-116 3 -125 6 -12 5 -16 21 -16 65 l0 59 -32 0 c-18 0 -51 2 -73 5 -32 4 -35
3 -15 -4z"/>
<path d="M4137 4923 c-13 -12 -7 -23 13 -23 11 0 20 7 20 15 0 15 -21 21 -33
8z"/>
<path d="M2278 4873 c6 -2 18 -2 25 0 6 3 1 5 -13 5 -14 0 -19 -2 -12 -5z"/>
<path d="M4132 4819 c2 -7 10 -15 17 -17 8 -3 12 1 9 9 -2 7 -10 15 -17 17 -8
3 -12 -1 -9 -9z"/>
<path d="M2233 4760 l2 -60 -39 0 c-32 0 -37 -2 -26 -14 6 -8 18 -12 26 -9 8
3 21 0 30 -7 12 -11 37 -11 127 -1 62 6 121 10 132 9 12 -2 20 3 20 11 0 11
-21 13 -102 12 l-103 -2 0 60 0 61 -34 0 -35 0 2 -60z"/>
<path d="M3372 4748 c-10 -30 -10 -31 3 -14 13 17 21 46 12 46 -1 0 -8 -15
-15 -32z"/>
<path d="M2166 4619 c3 -6 17 -8 29 -5 31 8 58 -3 51 -20 -3 -8 -1 -14 4 -14
11 0 9 -28 -3 -47 -5 -8 -4 -13 2 -13 6 0 11 -4 11 -10 0 -5 -17 -10 -39 -10
-22 0 -44 -6 -51 -15 -7 -8 -11 -15 -9 -16 2 0 13 -2 24 -5 54 -11 220 -14
275 -4 58 11 63 10 77 -9 10 -15 25 -21 54 -21 39 0 39 0 39 40 0 40 0 40 -38
40 -22 0 -52 -7 -68 -15 -22 -11 -51 -13 -122 -8 l-92 6 0 68 0 69 -76 0 c-51
0 -73 -3 -68 -11z"/>
<path d="M2853 4434 c-17 -9 -40 -25 -50 -37 -17 -20 -17 -20 14 1 17 12 47
29 65 37 18 8 26 14 18 14 -8 0 -29 -7 -47 -15z"/>
<path d="M2920 4436 c0 -2 9 -6 20 -9 11 -3 18 -1 14 4 -5 9 -34 13 -34 5z"/>
<path d="M7377 4419 c4 -14 1 -20 -8 -18 -28 6 -87 -12 -93 -27 -5 -13 -9 -14
-21 -4 -12 10 -15 9 -16 -6 -1 -11 -1 -22 0 -26 0 -5 -3 -8 -9 -8 -5 0 -10 5
-10 11 0 13 -42 1 -52 -15 -6 -8 -11 -6 -18 4 -8 13 -10 13 -10 -2 0 -9 -7
-21 -15 -25 -12 -7 -8 -23 24 -98 43 -99 84 -254 102 -384 13 -92 7 -336 -10
-431 -5 -30 -12 -80 -15 -110 -14 -129 -28 -218 -41 -260 -8 -25 -15 -56 -17
-70 -2 -14 -7 -29 -13 -33 -6 -5 2 -7 17 -4 15 2 26 1 25 -3 -1 -5 3 -8 8 -9
6 0 9 10 7 22 -2 15 0 18 6 9 6 -9 13 -7 29 8 20 18 22 18 28 2 4 -9 7 -38 6
-64 -2 -45 -1 -48 23 -48 14 0 26 4 26 8 0 16 47 31 59 19 8 -8 11 -6 11 8 0
14 3 16 8 8 12 -18 92 23 92 47 0 10 7 26 16 35 9 9 18 34 19 55 1 22 8 46 14
54 8 10 12 41 10 88 -2 40 0 79 5 86 9 15 10 749 1 832 -4 30 -10 64 -15 75
-4 11 -14 36 -21 55 -13 33 -144 240 -153 240 -2 0 -2 -9 1 -21z"/>
<path d="M2237 4414 c-3 -4 -2 -14 3 -24 6 -11 4 -24 -6 -38 -14 -20 -14 -22
0 -22 10 0 16 -9 16 -25 0 -18 -7 -26 -25 -31 -27 -7 -32 -19 -12 -28 6 -3 -7
-4 -30 -2 -27 3 -43 0 -46 -9 -4 -9 12 -12 61 -12 70 0 238 -12 259 -18 7 -2
19 2 27 10 8 8 26 15 39 15 20 0 23 -4 20 -23 -6 -29 12 -44 57 -49 33 -3 35
-1 38 30 6 57 -3 60 -170 61 -83 1 -153 3 -155 4 -1 2 -3 17 -4 33 0 16 -3 53
-6 82 -4 49 -6 52 -32 52 -15 0 -31 -3 -34 -6z"/>
<path d="M2235 4162 c3 -8 5 -31 5 -53 0 -38 1 -39 35 -39 l35 0 0 55 0 55
-40 -2 c-29 -2 -39 -7 -35 -16z"/>
<path d="M4265 4043 c-96 -111 -312 -307 -345 -315 -7 -2 -22 -10 -32 -18 -10
-8 -28 -17 -40 -20 -20 -5 -17 -11 36 -69 144 -162 253 -405 293 -654 9 -59
20 -107 24 -107 48 0 570 542 546 567 -4 3 -13 0 -22 -7 -21 -17 -66 -5 -62
18 1 9 6 22 10 28 3 6 3 14 0 18 -4 4 -56 -42 -115 -101 -59 -59 -108 -101
-108 -93 0 15 58 132 95 190 23 37 66 130 60 130 -1 0 -12 -15 -23 -34 -20
-34 -48 -42 -79 -23 -6 4 -20 -4 -31 -18 -20 -25 -46 -33 -56 -16 -3 5 -15 7
-26 4 -11 -3 -20 0 -20 6 0 6 -7 11 -15 11 -8 0 -15 9 -15 19 0 11 -5 23 -10
26 -12 8 -8 68 8 106 6 15 14 43 17 63 4 20 11 39 16 42 5 3 9 18 9 34 0 16 5
32 11 36 8 4 7 9 -2 15 -8 5 -9 9 -4 9 14 0 16 53 2 63 -8 6 -6 7 5 3 19 -6
34 9 18 19 -5 3 -10 17 -10 31 0 30 -15 31 -31 2 -11 -21 -12 -21 -26 -2 -11
15 -15 16 -22 5 -5 -8 -8 0 -7 23 0 20 4 36 7 36 4 0 9 11 11 25 3 14 4 25 3
25 -1 0 -32 -35 -70 -77z"/>
<path d="M2240 4050 l-65 -7 68 -1 c39 -1 67 2 67 8 0 6 -1 9 -2 8 -2 -1 -32
-4 -68 -8z"/>
<path d="M2146 4011 c-3 -5 8 -14 26 -20 39 -14 148 -14 148 -1 0 6 21 11 48
11 l47 1 -40 9 c-55 11 -222 11 -229 0z"/>
<path d="M2527 4003 c-4 -3 -7 -24 -7 -46 l0 -39 50 4 c28 1 50 0 50 -4 0 -12
-44 -33 -70 -33 -19 0 -26 -6 -29 -25 -1 -14 -8 -28 -15 -32 -8 -6 -8 -8 2 -8
8 0 12 -17 12 -50 0 -37 4 -50 14 -50 12 0 12 -4 2 -27 -7 -16 -12 -44 -12
-63 1 -33 3 -35 39 -38 l37 -3 2 53 c1 43 2 46 5 15 2 -20 8 -35 14 -32 5 4 9
-6 9 -22 1 -26 2 -26 14 -10 13 16 21 16 66 -1 37 -14 60 -10 72 11 7 12 11
28 9 36 -1 9 3 12 13 8 10 -4 16 -1 16 8 0 8 -6 15 -12 16 -7 0 -3 5 10 11 24
12 29 43 9 55 -38 23 -23 53 26 53 20 0 21 0 1 16 -10 8 -13 13 -6 9 7 -4 12
0 12 9 0 9 5 16 11 16 5 0 7 -5 3 -12 -4 -7 -3 -8 4 -4 7 4 12 0 13 -11 0 -11
3 -13 6 -5 2 6 10 10 16 6 7 -3 4 1 -7 10 -17 14 -17 16 -1 32 10 11 15 28 13
45 -3 15 0 27 5 26 5 -1 11 3 14 10 6 17 -209 58 -276 51 -28 -2 -37 0 -34 9
4 9 -9 13 -44 13 -27 0 -53 -3 -56 -7z m100 -55 c-3 -8 -6 -5 -6 6 -1 11 2 17
5 13 3 -3 4 -12 1 -19z m4 -255 c13 -16 12 -17 -3 -4 -17 13 -22 21 -14 21 2
0 10 -8 17 -17z m147 -49 c0 -17 -4 -22 -11 -15 -5 5 -7 17 -4 25 9 23 15 19
15 -10z m-118 -6 c0 -4 -4 -8 -9 -8 -6 0 -12 4 -15 8 -3 5 1 9 9 9 8 0 15 -4
15 -9z"/>
<path d="M2365 3971 c-22 -11 -35 -20 -30 -21 6 -1 -3 -6 -20 -10 -29 -7 -29
-8 10 -9 22 -1 45 -5 52 -9 13 -8 6 -52 -8 -52 -5 0 -9 -9 -9 -20 0 -18 6 -20
58 -18 l57 1 -55 8 -55 7 62 -2 c58 -1 62 0 66 24 3 14 0 31 -5 38 -8 9 -7 11
6 6 9 -3 16 -1 16 5 0 6 -5 11 -11 11 -6 0 -8 9 -4 21 14 42 -60 53 -130 20z"/>
<path d="M4756 3956 c-23 -49 -19 -59 5 -13 11 22 18 41 16 43 -2 3 -12 -11
-21 -30z"/>
<path d="M2198 3943 c12 -2 30 -2 40 0 9 3 -1 5 -23 4 -22 0 -30 -2 -17 -4z"/>
<path d="M4697 3815 c-9 -19 -15 -35 -12 -35 7 0 37 61 33 66 -3 2 -12 -12
-21 -31z"/>
<path d="M2368 3795 c-3 -3 -50 -10 -104 -15 l-99 -9 103 3 c103 3 143 -7 77
-20 -20 -3 -74 -4 -121 -2 -62 3 -80 2 -67 -6 26 -15 273 -17 278 -2 14 42 10
51 -25 54 -20 2 -38 0 -42 -3z"/>
<path d="M6906 3638 c-3 -68 -7 -141 -10 -163 -2 -22 -5 -46 -5 -52 -1 -14
-57 -7 -78 9 -19 15 -32 0 -27 -32 4 -23 1 -30 -10 -30 -10 0 -16 -9 -16 -22
0 -13 -4 -29 -9 -37 -7 -11 -11 -9 -20 8 -7 12 -9 27 -6 34 4 6 -1 3 -9 -7 -9
-11 -16 -31 -16 -44 0 -20 -3 -22 -14 -13 -14 12 -26 -6 -111 -169 -24 -47
-120 -190 -170 -254 -18 -23 -40 -9 -29 18 5 12 9 14 14 6 8 -13 50 47 50 72
0 9 7 32 15 51 23 56 18 54 -28 -15 -52 -78 -109 -196 -101 -209 3 -5 1 -8 -5
-7 -5 2 -34 -32 -63 -74 -92 -134 -303 -364 -413 -451 -120 -96 -119 -94 -75
-71 20 10 59 19 93 20 31 1 59 3 62 4 3 1 8 3 13 5 26 7 54 22 55 30 1 6 5 9
10 7 4 -1 7 2 7 8 0 5 4 10 10 10 11 0 29 14 93 73 23 20 49 39 57 42 8 3 24
18 35 35 11 16 25 30 31 30 6 0 23 11 38 25 14 13 26 19 26 13 0 -7 5 -7 14 1
11 9 14 8 12 -6 0 -10 6 -18 14 -18 10 0 14 8 13 23 -2 14 3 22 12 22 8 0 15
5 15 11 0 6 7 8 16 5 11 -4 15 -2 11 8 -3 7 3 23 14 35 11 12 15 21 9 21 -5 0
-10 5 -10 11 0 6 7 9 15 5 8 -3 14 -2 13 2 -4 16 14 52 27 52 7 0 25 14 39 31
14 17 26 28 26 24 0 -10 37 29 49 53 8 14 8 22 1 22 -5 0 -10 5 -10 12 0 6 7
4 18 -5 23 -21 32 -21 32 -2 0 8 8 15 18 15 10 0 23 5 30 12 7 7 12 8 12 4 0
-5 9 3 21 17 11 15 19 32 18 39 -4 25 21 70 36 65 10 -5 13 1 10 24 -2 18 1
29 8 29 24 0 36 -16 30 -38 -3 -12 -8 -20 -12 -18 -3 2 -6 -9 -7 -24 -1 -38
-24 -91 -35 -84 -5 3 -8 2 -7 -3 4 -16 -14 -53 -23 -48 -5 3 -6 -2 -2 -11 5
-13 3 -15 -7 -9 -8 5 -11 4 -6 -3 4 -6 1 -21 -5 -34 -7 -13 -15 -30 -20 -38
-4 -8 -12 -14 -18 -13 -6 2 -8 -3 -5 -10 16 -42 -272 -373 -436 -502 -14 -11
-30 -27 -35 -35 -8 -13 -7 -13 11 0 10 8 24 20 30 25 6 6 40 35 75 65 160 137
323 323 385 440 16 30 32 57 35 60 8 6 109 204 109 213 0 4 12 31 26 62 22 47
29 53 44 45 13 -7 20 -6 23 3 3 7 6 5 6 -5 1 -10 8 -18 17 -18 9 0 12 -5 8
-12 -5 -7 -3 -8 7 -2 20 12 80 13 72 1 -4 -6 0 -8 10 -4 13 5 17 1 17 -15 0
-17 2 -18 15 -8 13 11 15 10 10 -6 -11 -38 46 89 65 146 16 48 18 64 8 91 -8
24 -8 37 1 50 6 10 11 32 11 47 0 26 -3 29 -26 24 -21 -4 -25 -2 -18 9 13 21
15 49 3 49 -5 0 -8 4 -5 9 3 5 -1 12 -10 15 -22 8 -24 8 -24 -8 0 -8 -7 -16
-15 -20 -9 -3 -15 0 -15 10 0 9 5 12 13 8 6 -4 9 -4 5 1 -4 4 -3 14 3 22 14
17 -2 17 -21 1 -8 -7 -11 -9 -7 -4 9 12 -30 39 -44 30 -6 -3 -9 -23 -7 -44 3
-31 1 -36 -14 -32 -20 5 -23 17 -8 27 6 3 10 11 10 17 0 7 -6 6 -15 -2 -12
-10 -15 -10 -15 2 0 8 3 18 6 21 11 11 12 82 2 88 -6 4 -1 16 12 29 l21 21
-21 6 c-13 3 -19 11 -16 19 3 8 1 14 -4 14 -6 0 -10 6 -10 14 0 7 -7 19 -15
26 -8 7 -15 18 -14 24 4 32 -2 76 -10 76 -6 0 -12 -55 -15 -122z m39 12 c3 -5
1 -10 -4 -10 -6 0 -11 5 -11 10 0 6 2 10 4 10 3 0 8 -4 11 -10z m218 -339 c-4
-3 -10 -9 -13 -12 -3 -4 -10 -1 -17 6 -9 10 -6 13 13 13 14 0 21 -3 17 -7z
m-3 -156 c-5 -14 -12 -25 -14 -25 -3 0 -2 7 1 17 4 11 3 14 -6 9 -9 -6 -10 0
-5 21 10 42 16 49 25 25 5 -12 4 -33 -1 -47z m-490 5 c0 -5 -7 -7 -15 -4 -8 4
-15 8 -15 10 0 2 7 4 15 4 8 0 15 -4 15 -10z m68 -21 c-3 -8 -7 -3 -11 10 -4
17 -3 21 5 13 5 -5 8 -16 6 -23z m-112 -18 c-7 -11 18 -33 27 -24 4 3 7 2 7
-4 0 -15 -43 -24 -55 -12 -7 7 -5 13 5 19 8 5 11 10 7 10 -9 0 1 20 9 20 3 0
3 -4 0 -9z m80 -70 c9 -32 8 -38 -3 -34 -8 3 -12 12 -9 19 3 7 -3 18 -12 23
-11 7 -12 11 -4 11 7 0 10 5 7 10 -3 6 -2 10 2 10 5 0 14 -18 19 -39z m-37 -7
c4 3 8 -1 8 -9 0 -21 -13 -19 -22 3 -6 15 -8 15 -26 -7 -11 -13 -22 -21 -26
-18 -3 4 0 13 7 22 7 8 9 15 4 16 -5 1 2 4 16 8 17 5 26 3 28 -6 2 -7 7 -11
11 -9z m-69 -4 c0 -5 -4 -10 -10 -10 -5 0 -10 5 -10 10 0 6 5 10 10 10 6 0 10
-4 10 -10z m-27 -280 c-6 -23 -34 -23 -41 -1 -3 8 0 11 5 8 5 -3 15 -2 23 4 8
5 16 9 17 9 0 0 -1 -9 -4 -20z m-572 -397 c-12 -23 -48 -56 -86 -78 -21 -12
-13 -1 27 39 58 57 76 69 59 39z"/>
<path d="M2260 3711 c-112 -7 -106 -23 8 -20 l77 2 3 -83 3 -83 -85 7 c-47 3
-87 2 -90 -3 -3 -5 49 -12 117 -16 67 -4 118 -9 112 -10 -5 -1 -28 -7 -50 -13
-60 -16 -163 -24 -145 -11 12 9 12 10 -3 5 -10 -3 -35 -6 -55 -6 -35 -1 -36
-1 -17 -16 16 -13 40 -15 118 -11 l98 4 -2 -61 c-2 -93 -6 -96 -99 -96 -46 0
-80 -4 -80 -10 0 -9 75 -8 257 6 l72 6 -15 24 c-9 13 -12 24 -6 24 11 0 21 39
14 58 -2 7 -8 10 -13 6 -5 -3 -9 0 -9 5 0 6 7 11 15 11 8 0 15 7 15 15 0 8 5
15 10 15 6 0 10 -5 10 -11 0 -5 3 -8 8 -6 4 3 17 1 30 -4 15 -6 22 -17 23 -36
1 -28 1 -28 10 4 9 30 6 36 -34 76 -42 41 -50 67 -21 67 8 0 14 5 14 11 0 5 4
8 9 4 5 -3 13 0 17 6 5 8 -2 10 -24 7 -35 -5 -42 5 -42 57 0 19 -7 41 -16 49
-12 12 -12 16 -2 16 11 0 11 2 0 9 -15 9 -94 10 -232 2z m213 -178 c-7 -2 -21
-2 -30 0 -10 3 -4 5 12 5 17 0 24 -2 18 -5z m41 -48 c-4 -8 -8 -15 -10 -15 -2
0 -4 7 -4 15 0 8 4 15 10 15 5 0 7 -7 4 -15z"/>
<path d="M4545 3560 c-3 -5 -1 -10 4 -10 6 0 11 5 11 10 0 6 -2 10 -4 10 -3 0
-8 -4 -11 -10z"/>
<path d="M2158 3493 c7 -3 16 -2 19 1 4 3 -2 6 -13 5 -11 0 -14 -3 -6 -6z"/>
<path d="M2530 3401 c0 -20 27 -48 36 -38 4 3 4 18 0 32 -7 29 -36 34 -36 6z"/>
<path d="M7191 3364 c0 -11 3 -14 6 -6 3 7 2 16 -1 19 -3 4 -6 -2 -5 -13z"/>
<path d="M5995 3272 c-79 -154 -206 -325 -381 -511 -116 -124 -427 -402 -674
-604 l-35 -28 35 23 c19 12 75 53 124 90 49 37 93 65 98 62 4 -3 8 0 8 5 0 17
130 139 190 178 30 20 64 44 75 54 28 25 126 40 229 35 l87 -3 35 35 c19 19
33 39 32 46 -1 6 9 23 22 37 14 14 41 49 60 78 19 29 49 66 65 83 17 16 31 40
32 51 7 61 17 97 29 108 8 6 14 18 14 26 0 8 4 12 10 8 5 -3 6 -13 3 -23 -16
-46 18 10 41 67 27 67 33 101 17 101 -5 0 -7 -10 -5 -22 3 -19 2 -18 -9 5 -7
15 -15 25 -18 23 -2 -3 -4 20 -2 49 1 30 -3 57 -8 60 -5 4 -9 15 -9 26 0 40
-26 16 -65 -59z m-216 -657 c-18 -19 -34 -33 -36 -31 -6 5 49 66 60 66 4 0 -7
-16 -24 -35z"/>
<path d="M3595 3253 c14 -24 25 -49 25 -56 0 -7 5 -18 12 -25 9 -9 9 -12 -2
-12 -11 0 -10 -3 2 -12 16 -13 33 -64 29 -83 -2 -5 -3 -18 -4 -27 -1 -21 -8
-23 -25 -6 -16 16 -16 -4 1 -21 10 -11 10 -14 0 -18 -7 -3 -14 -14 -14 -26 -1
-17 -2 -18 -6 -4 -6 23 -16 21 -28 -5 -6 -13 -14 -23 -20 -23 -19 0 -35 -17
-33 -33 2 -10 -4 -17 -12 -17 -20 0 -46 -25 -34 -33 11 -8 11 -62 1 -79 -4 -6
-1 -14 5 -16 9 -4 10 -8 2 -14 -16 -13 -8 -61 24 -149 40 -107 56 -223 49
-343 -4 -55 -3 -90 2 -82 7 11 10 10 18 -4 7 -11 13 -14 17 -7 3 6 2 13 -4 17
-15 9 -12 22 5 22 8 0 15 -7 16 -16 0 -11 2 -12 6 -3 4 10 8 10 21 0 13 -11
14 -10 4 8 -10 19 -9 21 11 20 12 0 22 5 22 12 0 8 9 20 19 28 11 8 17 14 14
14 -3 0 8 15 24 33 17 17 44 59 59 92 43 90 40 150 -18 415 -46 206 -117 383
-188 465 l-26 30 26 -42z m105 -997 c0 -3 -4 -8 -10 -11 -5 -3 -10 -1 -10 4 0
6 5 11 10 11 6 0 10 -2 10 -4z"/>
<path d="M2150 3255 c7 -9 30 -15 54 -16 31 0 36 -2 21 -9 -17 -6 -15 -9 15
-14 22 -4 80 3 155 18 l120 24 -87 1 c-48 0 -90 -3 -93 -9 -9 -15 -76 -12
-125 5 -23 8 -49 15 -57 15 -13 0 -13 -3 -3 -15z"/>
<path d="M2532 3261 c-8 -5 -12 -21 -10 -37 3 -27 6 -29 43 -29 35 0 40 3 43
24 6 39 -41 64 -76 42z"/>
<path d="M2346 3211 c-11 -4 -15 -10 -10 -13 15 -8 154 3 154 13 0 11 -117 11
-144 0z"/>
<path d="M2152 3189 c9 -5 42 -11 74 -14 38 -4 52 -2 39 3 -26 12 -133 22
-113 11z"/>
<path d="M2940 3095 c-14 -8 -56 -26 -95 -41 -95 -36 -109 -50 -47 -47 26 1
65 7 87 12 79 19 94 21 100 11 4 -6 -6 -10 -24 -10 -21 0 -31 -5 -31 -15 0 -8
4 -15 10 -15 11 0 110 20 128 26 12 4 -80 94 -96 94 -4 -1 -18 -7 -32 -15z"/>
<path d="M2173 3053 c15 -2 39 -2 55 0 15 2 2 4 -28 4 -30 0 -43 -2 -27 -4z"/>
<path d="M2300 3040 c19 -4 58 -4 86 -2 62 5 150 -6 138 -18 -12 -12 -167 -14
-281 -5 -68 6 -93 5 -93 -4 0 -7 27 -11 78 -12 85 -1 146 -11 122 -20 -32 -11
-98 -9 -157 5 -35 8 -63 12 -63 10 0 -9 71 -32 119 -39 64 -9 211 3 211 17 0
7 -16 8 -42 5 -27 -4 -37 -2 -27 4 7 5 35 9 60 9 39 0 50 -4 63 -24 15 -24 15
-25 -7 -32 -12 -4 -35 -8 -52 -9 -16 -1 -44 -5 -62 -9 -29 -8 -33 -13 -41 -60
-4 -28 -5 -56 0 -62 13 -18 -2 -24 -58 -24 -63 0 -108 15 -98 32 5 8 2 9 -10
5 -10 -4 -25 -7 -34 -7 -51 0 95 -50 161 -55 59 -4 36 -15 -32 -15 -40 0 -70
4 -67 9 3 4 -6 6 -20 3 -19 -3 -22 -7 -12 -13 19 -13 147 -11 228 3 56 10 70
16 70 30 0 12 -7 18 -22 18 -22 0 -20 10 4 14 21 3 57 37 91 86 17 25 31 47
31 50 -1 3 7 11 17 18 23 16 25 55 5 75 -17 17 -136 28 -261 25 -57 -1 -70 -3
-45 -8z"/>
<path d="M2653 2993 c-13 -2 -23 -11 -23 -20 0 -12 3 -13 15 -3 8 6 18 9 22 7
5 -3 17 1 28 9 19 14 19 14 -1 13 -10 -1 -29 -4 -41 -6z"/>
<path d="M7155 2890 c3 -6 1 -10 -6 -10 -7 0 -10 -3 -6 -6 3 -3 13 -2 22 4 16
8 16 9 1 15 -10 4 -15 3 -11 -3z"/>
<path d="M2879 2821 c11 -7 11 -9 0 -14 -10 -4 -9 -6 4 -6 9 -1 17 6 17 14 0
8 -8 15 -17 15 -14 0 -15 -2 -4 -9z"/>
<path d="M3024 2789 c0 -10 4 -19 8 -19 4 0 8 6 8 14 0 8 -4 17 -8 20 -4 2 -8
-4 -8 -15z"/>
<path d="M2954 2725 c-10 -25 7 -40 23 -20 7 11 13 22 13 27 0 14 -30 9 -36
-7z"/>
<path d="M6580 2720 c-9 -6 -10 -10 -3 -10 6 0 15 5 18 10 8 12 4 12 -15 0z"/>
<path d="M2756 2704 c-4 -10 -1 -14 6 -12 15 5 23 28 10 28 -5 0 -13 -7 -16
-16z"/>
<path d="M2180 2560 c20 -13 137 -13 145 0 4 6 -24 10 -77 10 -57 0 -78 -3
-68 -10z"/>
<path d="M2358 2544 c-18 -18 -83 -24 -167 -14 -52 6 -65 -10 -27 -35 43 -29
281 -33 325 -6 10 7 11 16 4 37 -9 27 -14 29 -64 32 -40 2 -58 -1 -71 -14z
m-94 -30 c99 -4 112 -14 19 -14 -82 0 -133 8 -133 22 0 6 8 7 18 3 9 -4 52 -9
96 -11z"/>
<path d="M6869 2393 c-13 -16 -12 -17 4 -4 16 13 21 21 13 21 -2 0 -10 -8 -17
-17z"/>
<path d="M3043 2363 c-19 -7 -16 -40 4 -47 21 -8 36 6 31 30 -3 19 -16 25 -35
17z"/>
<path d="M2220 2291 c0 -6 10 -13 23 -15 12 -3 31 -7 42 -9 11 -3 -7 -5 -40
-6 -70 -2 -98 -13 -69 -29 46 -24 241 -50 289 -38 19 5 25 13 25 35 0 27 -3
29 -42 33 -77 8 -136 -18 -76 -33 49 -12 -48 -20 -103 -8 -84 18 -92 28 -24
29 98 2 121 20 45 35 -19 3 -43 9 -52 11 -10 3 -18 1 -18 -5z"/>
<path d="M5185 2240 c-3 -5 1 -10 10 -10 9 0 13 5 10 10 -3 6 -8 10 -10 10 -2
0 -7 -4 -10 -10z"/>
<path d="M2185 2069 l-20 -9 20 2 c11 2 26 -1 34 -6 9 -6 12 -5 7 2 -4 6 5 12
21 15 24 3 23 4 -7 5 -19 0 -44 -4 -55 -9z"/>
<path d="M2183 2028 c-1 -10 2 -18 8 -18 5 0 9 -4 9 -10 0 -5 -8 -7 -17 -3
-10 3 -15 3 -12 -1 28 -31 318 -72 333 -47 8 13 7 13 -94 12 -41 -1 -97 5
-125 14 l-50 15 45 -7 c58 -8 205 -7 219 2 25 15 -5 25 -77 25 -53 0 -72 -3
-62 -10 12 -8 11 -10 -7 -10 -13 0 -23 5 -23 10 0 6 -17 10 -38 10 -21 0 -54
8 -73 18 -34 17 -35 17 -36 0z"/>
<path d="M2278 2043 c6 -2 18 -2 25 0 6 3 1 5 -13 5 -14 0 -19 -2 -12 -5z"/>
<path d="M2971 1844 c0 -11 3 -14 6 -6 3 7 2 16 -1 19 -3 4 -6 -2 -5 -13z"/>
<path d="M2208 1804 c-4 -3 -12 -6 -20 -7 -32 -5 -18 -23 27 -34 l50 -11 -45
-2 c-42 -2 -43 -3 -15 -10 43 -11 133 -12 117 -1 -10 6 -7 10 12 13 14 3 26 1
26 -5 0 -10 137 -3 148 8 14 14 -18 18 -131 16 -69 -1 -135 3 -148 8 -13 5
-18 10 -11 10 6 1 12 6 12 11 0 11 -13 13 -22 4z"/>
<path d="M2263 1793 c9 -2 23 -2 30 0 6 3 -1 5 -18 5 -16 0 -22 -2 -12 -5z"/>
<path d="M2895 1770 c-8 -13 15 -13 35 0 12 8 11 10 -7 10 -12 0 -25 -4 -28
-10z"/>
<path d="M2433 1731 c-34 -3 -67 -11 -74 -18 -20 -20 8 -24 86 -16 50 6 70 12
70 22 0 18 -7 19 -82 12z"/>
<path d="M2190 1710 c20 -13 150 -13 150 0 0 6 -34 10 -82 10 -57 0 -78 -3
-68 -10z"/>
<path d="M2170 1550 c-13 -9 -13 -10 0 -9 8 0 24 4 35 9 l20 9 -20 0 c-11 0
-27 -4 -35 -9z"/>
<path d="M2177 1521 c-31 -12 27 -32 109 -38 83 -7 224 5 224 18 0 5 -55 8
-122 8 -68 -1 -136 4 -151 10 -32 12 -35 12 -60 2z"/>
<path d="M2190 1476 c77 -43 320 -49 320 -9 0 12 -8 14 -36 8 -55 -10 -224 -7
-264 5 -46 13 -51 12 -20 -4z"/>
<path d="M4106 1377 c-33 -22 -43 -33 -32 -35 9 -2 30 11 46 28 17 19 34 29
41 24 8 -4 9 -3 5 4 -9 15 -2 17 -60 -21z"/>
<path d="M3360 1320 c-9 -6 -10 -10 -3 -10 6 0 15 5 18 10 8 12 4 12 -15 0z"/>
<path d="M2455 1039 c-89 -21 -163 -24 -215 -9 -32 9 -33 8 -16 -5 28 -21 148
-19 247 5 45 10 84 22 87 25 9 8 -18 4 -103 -16z"/>
<path d="M2570 997 c-14 -7 -29 -22 -34 -33 -8 -17 -27 -24 -112 -37 -116 -19
-198 -22 -189 -7 3 6 40 10 81 10 72 0 74 1 74 25 0 22 -4 25 -32 25 -18 -1
-53 -5 -78 -11 -25 -5 -56 -12 -70 -14 -42 -9 -50 -14 -50 -29 0 -32 170 -57
236 -36 21 7 39 11 40 9 0 -2 9 4 19 14 14 14 27 17 54 13 93 -16 116 -7 119
44 3 44 -11 51 -58 27z m33 -64 c-7 -2 -19 -2 -25 0 -7 3 -2 5 12 5 14 0 19
-2 13 -5z"/>
<path d="M2176 852 c4 -21 7 -43 7 -50 0 -7 6 -11 13 -8 6 2 15 2 18 -1 3 -3
45 -7 93 -9 85 -2 86 -2 28 7 -85 13 -92 20 -12 14 l67 -6 0 28 c0 27 -1 28
-64 31 -35 1 -85 9 -110 16 l-47 14 7 -36z"/>
<path d="M2541 789 c-36 -14 -246 -27 -304 -18 -28 5 -53 7 -55 5 -18 -19 85
-106 124 -106 13 0 26 -4 29 -10 10 -16 -27 -11 -75 11 l-45 20 25 -25 c26
-26 135 -69 205 -81 l40 -6 -40 23 c-39 23 -52 47 -54 98 -1 24 3 26 71 37 72
11 80 10 91 -20 1 -4 21 -5 45 -1 38 6 42 9 42 35 0 43 -44 60 -99 38z m-23
-26 c-10 -2 -26 -2 -35 0 -10 3 -2 5 17 5 19 0 27 -2 18 -5z m-71 -9 c-3 -3
-12 -4 -19 -1 -8 3 -5 6 6 6 11 1 17 -2 13 -5z"/>
<path d="M2773 593 c20 -2 54 -2 75 0 20 2 3 4 -38 4 -41 0 -58 -2 -37 -4z"/>
<path d="M2520 580 c-19 -4 17 -5 80 -2 63 3 117 6 119 8 8 7 -163 2 -199 -6z"/>
</g>
</svg>
